<?xml version="1.0" encoding="iso-8859-1"?>
<!-- Uploaded to: SVG Repo, www.svgrepo.com, Generator: SVG Repo Mixer Tools -->
<svg height="800px" width="800px" version="1.1" id="Capa_1" xmlns="http://www.w3.org/2000/svg" xmlns:xlink="http://www.w3.org/1999/xlink" 
	 viewBox="0 0 209.825 209.825" xml:space="preserve">
<g>
	<g>
		<path style="fill:#010002;" d="M94.739,74.268H76.219l2.97,22.658l0.061,0.429l1.288-0.233c4.474-0.823,10.01-1.804,16.015-2.834
			l1.206-0.208L94.8,74.619L94.739,74.268z M92.599,76.759l2.323,15.275c-5.161,0.895-9.713,1.696-13.546,2.398l-2.312-17.672
			H92.599z"/>
		<path style="fill:#010002;" d="M190.721,80.682c-9.881,0-23.685,1.063-41.042,3.171L133.062,68.37l-0.118-0.111l-75.743-0.172
			h-0.54l2.244,8.36l0.082,0.304l12.207,0.079l2.387,19.029l-3.429,0.651l-41.45,10.597l-0.154,0.036l-12.966,19.634L0,126.466
			l6.821,15.031l0.115,0.24h166.943l0.369-0.397c1.46-1.585,35.653-38.949,35.577-54.778
			C209.817,82.493,203.919,80.682,190.721,80.682z M8.55,139.25l-4.631-10.21l12.995,0.265l13.199-19.977l40.591-10.382l5.647-1.063
			l-2.949-23.524l-12.49-0.086l-0.988-3.683l72.039,0.161l16.441,15.325l0.433,0.394l0.573-0.072
			c17.522-2.137,31.422-3.217,41.314-3.217c15.801,0,16.617,2.827,16.62,3.393c0.064,13.958-30.452,48.153-34.547,52.677H8.55z"/>
		<path style="fill:#010002;" d="M119.67,74.268H97.549l3.028,18.9l0.064,0.415l1.242-0.208c7.319-1.22,13.943-2.29,20.26-3.257
			l1.346-0.204l-3.743-15.335L119.67,74.268z M117.708,76.759l2.709,11.102c-5.426,0.837-11.23,1.768-17.708,2.845l-2.237-13.947
			H117.708z"/>
		<path style="fill:#010002;" d="M131.262,74.268h-8.836l3.915,15.21l1.113-0.168c2.734-0.404,4.771-0.805,6.811-1.199
			c2.362-0.455,4.595-0.891,7.798-1.299l2.688-0.351l-13.367-12.086L131.262,74.268z M130.302,76.759l8.793,7.952
			c-1.983,0.308-3.622,0.623-5.372,0.963c-1.578,0.308-3.361,0.651-5.529,0.998l-2.555-9.917h4.663V76.759z"/>
	</g>
</g>
</svg>